<svg width="168" height="30" viewBox="0 0 168 30" fill="none" xmlns="http://www.w3.org/2000/svg">
  <!-- Material You 风格胶囊背景 (Rider 经典玫红色) -->
  <path d="M0 15C0 6.71573 6.71573 0 15 0H153C161.284 0 168 6.71573 168 15V15C168 23.2843 161.284 30 153 30H15C6.71573 30 0 23.2843 0 15V15Z" fill="#C60052"/>
  
  <!-- IntelliJ Rider 标志 (按 0.75 比例缩放并精确平移至原版相同位置) -->
  <g transform="translate(13, 6) scale(0.75)" fill="white">
    <path fill-rule="evenodd" clip-rule="evenodd" d="M0 0v24h24V0zm7.031 3.113A4.063 4.063 0 0 1 9.72 4.14a3.23 3.23 0 0 1 .84 2.28A3.16 3.16 0 0 1 8.4 9.54l2.46 3.6H8.28L6.12 9.9H4.38v3.24H2.16V3.12c1.61-.004 3.281.009 4.871-.007zm5.509.007h3.96c3.18 0 5.34 2.16 5.34 5.04 0 2.82-2.16 5.04-5.34 5.04h-3.96zm4.069 1.976c-.607.01-1.235.004-1.849.004v6.06h1.74a2.882 2.882 0 0 0 3.06-3 2.897 2.897 0 0 0-2.951-3.064zM4.319 5.1v2.88H6.6c1.08 0 1.68-.6 1.68-1.44 0-.96-.66-1.44-1.74-1.44zM2.16 19.5h9V21h-9Z"/>
  </g>

  <!-- 高度还原的排版文本：使用相似的几何字体回退栈 -->
  <text x="36" y="22" font-family="'Pangram Sans', 'Google Sans', 'Product Sans', ui-sans-serif, system-ui, sans-serif" font-weight="bold" font-size="19" fill="white">IntelliJ Rider</text>
</svg>
